<?xml version="1.0" encoding="utf-8"?>
<!-- Generated by IcoMoon.io -->
<!DOCTYPE svg PUBLIC "-//W3C//DTD SVG 1.1//EN" "http://www.w3.org/Graphics/SVG/1.1/DTD/svg11.dtd">
<svg version="1.1" xmlns="http://www.w3.org/2000/svg" xmlns:xlink="http://www.w3.org/1999/xlink" width="16" height="16" viewBox="0 0 16 16">
<g id="icomoon-ignore">
	<line stroke-width="1" x1="" y1="" x2="" y2="" stroke="#449FDB" opacity=""></line>
</g>
	<path d="M0 8q0-1.866 0.92-3.442t2.496-2.496 3.442-0.92 3.442 0.92 2.496 2.496 0.92 3.442q0 2.241-1.308 4.031t-3.379 2.478q-0.241 0.045-0.353-0.063t-0.112-0.268v-1.884q0-0.866-0.464-1.268 0.509-0.054 0.915-0.161t0.839-0.348 0.723-0.594 0.473-0.938 0.183-1.344q0-1.080-0.705-1.839 0.33-0.813-0.071-1.821-0.25-0.080-0.723 0.098t-0.821 0.393l-0.339 0.214q-0.83-0.232-1.714-0.232t-1.714 0.232q-0.143-0.098-0.379-0.241t-0.746-0.344-0.768-0.121q-0.393 1.009-0.063 1.821-0.705 0.759-0.705 1.839 0 0.759 0.183 1.339t0.469 0.938 0.719 0.598 0.839 0.348 0.915 0.161q-0.357 0.321-0.438 0.92-0.188 0.089-0.402 0.134t-0.509 0.045-0.585-0.192-0.496-0.558q-0.17-0.286-0.433-0.464t-0.442-0.214l-0.179-0.027q-0.188 0-0.259 0.040t-0.045 0.103 0.080 0.125 0.116 0.107l0.063 0.045q0.196 0.089 0.388 0.339t0.281 0.455l0.089 0.205q0.116 0.339 0.393 0.549t0.598 0.268 0.621 0.063 0.496-0.031l0.205-0.036q0 0.339 0.004 0.795t0.004 0.482q0 0.161-0.116 0.268t-0.357 0.063q-2.071-0.688-3.379-2.478t-1.308-4.031z" fill="#fcfcfc"></path>
</svg>
