<?xml version="1.0" encoding="utf-8"?>
<!-- Generated by IcoMoon.io -->
<!DOCTYPE svg PUBLIC "-//W3C//DTD SVG 1.1//EN" "http://www.w3.org/Graphics/SVG/1.1/DTD/svg11.dtd">
<svg version="1.1" xmlns="http://www.w3.org/2000/svg" xmlns:xlink="http://www.w3.org/1999/xlink" width="16" height="16" viewBox="0 0 16 16">
<g id="icomoon-ignore">
	<line stroke-width="1" x1="" y1="" x2="" y2="" stroke="#449FDB" opacity=""></line>
</g>
	<path d="M0 5.321q0-1.964 1.134-3.071t3.134-1.107q0.554 0 1.129 0.192t1.071 0.518 0.853 0.612 0.679 0.607q0.321-0.321 0.679-0.607t0.853-0.612 1.071-0.518 1.129-0.192q2 0 3.134 1.107t1.134 3.071q0 1.973-2.045 4.018l-5.563 5.357q-0.161 0.161-0.393 0.161t-0.393-0.161l-5.571-5.375q-0.089-0.071-0.246-0.232t-0.496-0.585-0.607-0.871-0.478-1.080-0.21-1.232zM1.143 5.321q0 1.5 1.67 3.17l5.188 5 5.179-4.991q1.679-1.679 1.679-3.179 0-0.723-0.192-1.277t-0.491-0.879-0.728-0.531-0.839-0.277-0.875-0.071-1 0.228-0.987 0.571-0.772 0.643-0.536 0.549q-0.161 0.196-0.438 0.196t-0.438-0.196q-0.214-0.25-0.536-0.549t-0.772-0.643-0.987-0.571-1-0.228-0.875 0.071-0.839 0.277-0.728 0.531-0.491 0.879-0.192 1.277z" fill="#fcfcfc"></path>
</svg>
