<?xml version="1.0" encoding="utf-8"?>
<!-- Generated by IcoMoon.io -->
<!DOCTYPE svg PUBLIC "-//W3C//DTD SVG 1.1//EN" "http://www.w3.org/Graphics/SVG/1.1/DTD/svg11.dtd">
<svg version="1.1" xmlns="http://www.w3.org/2000/svg" xmlns:xlink="http://www.w3.org/1999/xlink" width="16" height="16" viewBox="0 0 16 16">
<g id="icomoon-ignore">
	<line stroke-width="1" x1="" y1="" x2="" y2="" stroke="#449FDB" opacity=""></line>
</g>
	<path d="M0 8q0-1.866 0.92-3.442t2.496-2.496 3.442-0.92 3.442 0.92 2.496 2.496 0.92 3.442-0.92 3.442-2.496 2.496-3.442 0.92q-0.991 0-1.946-0.286 0.527-0.83 0.696-1.464 0.080-0.304 0.482-1.884 0.179 0.348 0.652 0.603t1.018 0.254q1.080 0 1.929-0.612t1.313-1.683 0.464-2.411q0-1.018-0.531-1.911t-1.54-1.455-2.277-0.563q-0.938 0-1.75 0.259t-1.379 0.688-0.973 0.987-0.598 1.156-0.192 1.196q0 0.929 0.357 1.634t1.045 0.991q0.268 0.107 0.339-0.179 0.018-0.063 0.071-0.277t0.071-0.268q0.054-0.205-0.098-0.384-0.455-0.545-0.455-1.348 0-1.348 0.933-2.317t2.442-0.969q1.348 0 2.103 0.732t0.754 1.902q0 1.518-0.612 2.58t-1.567 1.063q-0.545 0-0.875-0.388t-0.205-0.933q0.071-0.313 0.237-0.835t0.268-0.92 0.103-0.674q0-0.446-0.241-0.741t-0.688-0.295q-0.554 0-0.938 0.509t-0.384 1.268q0 0.652 0.223 1.089l-0.884 3.732q-0.152 0.625-0.116 1.58-1.839-0.813-2.973-2.509t-1.134-3.777z" fill="#fcfcfc"></path>
</svg>
