<?xml version="1.0" encoding="utf-8"?>
<!-- Generated by IcoMoon.io -->
<!DOCTYPE svg PUBLIC "-//W3C//DTD SVG 1.1//EN" "http://www.w3.org/Graphics/SVG/1.1/DTD/svg11.dtd">
<svg version="1.1" xmlns="http://www.w3.org/2000/svg" xmlns:xlink="http://www.w3.org/1999/xlink" width="18" height="16" viewBox="0 0 18 16">
<g id="icomoon-ignore">
	<line stroke-width="1" x1="" y1="" x2="" y2="" stroke="#449FDB" opacity=""></line>
</g>
	<path d="M0 7.268q0-0.839 0.589-1.429t1.429-0.589q0.741 0 1.321 0.491 2.214-1.411 5.286-1.464l1.196-3.777q0.036-0.125 0.156-0.192t0.254-0.040l3.098 0.732q0.196-0.446 0.612-0.723t0.915-0.277q0.688 0 1.174 0.487t0.487 1.174-0.487 1.179-1.174 0.491q-0.679 0-1.165-0.482t-0.496-1.17l-2.813-0.661-1.036 3.268q2.92 0.125 5 1.482 0.571-0.518 1.348-0.518 0.839 0 1.429 0.589t0.589 1.429q0 0.554-0.277 1.018t-0.741 0.732q0.045 0.295 0.045 0.545 0 1.080-0.612 2.058t-1.763 1.728q-1.116 0.732-2.549 1.121t-2.996 0.388q-1.571 0-3.004-0.388t-2.54-1.121q-1.152-0.75-1.763-1.723t-0.612-2.063q0-0.259 0.045-0.589-0.429-0.277-0.688-0.728t-0.259-0.978zM0.688 7.268q0 0.598 0.455 0.991 0.438-1.17 1.607-2.098-0.321-0.223-0.732-0.223-0.554 0-0.942 0.388t-0.388 0.942zM1.589 9.563q0 0.902 0.531 1.732t1.531 1.482q1.036 0.67 2.371 1.031t2.799 0.362 2.799-0.362 2.371-1.031q1-0.652 1.531-1.482t0.531-1.732-0.531-1.728-1.531-1.478q-1.036-0.67-2.371-1.031t-2.799-0.362-2.799 0.362-2.371 1.031q-1 0.652-1.531 1.478t-0.531 1.728zM4.955 8.607q0-0.509 0.371-0.875t0.871-0.366 0.862 0.366 0.362 0.875q0 0.5-0.362 0.857t-0.862 0.357q-0.509 0-0.875-0.357t-0.366-0.857zM5.902 11.844q0-0.147 0.098-0.246t0.241-0.098 0.241 0.098q0.688 0.688 2.366 0.688h0.018q1.679 0 2.366-0.688 0.098-0.098 0.241-0.098t0.241 0.098 0.098 0.246-0.098 0.246q-0.884 0.884-2.848 0.884h-0.018q-1.964 0-2.848-0.884-0.098-0.098-0.098-0.246zM10.295 8.607q0-0.509 0.371-0.875t0.871-0.366 0.862 0.366 0.362 0.875q0 0.5-0.362 0.857t-0.862 0.357q-0.509 0-0.875-0.357t-0.366-0.857zM13.884 1.661q0 0.402 0.286 0.688t0.688 0.286 0.688-0.286 0.286-0.688-0.286-0.688-0.688-0.286-0.688 0.286-0.286 0.688zM14.929 6.188q1.17 0.938 1.589 2.125 0.509-0.411 0.509-1.045 0-0.554-0.388-0.942t-0.942-0.388q-0.438 0-0.768 0.25z" fill="#fcfcfc"></path>
</svg>
