<?xml version="1.0" encoding="utf-8"?>
<!-- Generated by IcoMoon.io -->
<!DOCTYPE svg PUBLIC "-//W3C//DTD SVG 1.1//EN" "http://www.w3.org/Graphics/SVG/1.1/DTD/svg11.dtd">
<svg version="1.1" xmlns="http://www.w3.org/2000/svg" xmlns:xlink="http://www.w3.org/1999/xlink" width="16" height="16" viewBox="0 0 16 16">
<g id="icomoon-ignore">
	<line stroke-width="1" x1="" y1="" x2="" y2="" stroke="#449FDB" opacity=""></line>
</g>
	<path d="M0 13.714v-4q0-0.232 0.17-0.402t0.402-0.17h4q0.232 0 0.402 0.17t0.17 0.402-0.17 0.402l-1.223 1.223q0.634 0.589 1.438 0.911t1.67 0.321q1.196 0 2.232-0.58t1.661-1.598q0.098-0.152 0.473-1.045 0.071-0.205 0.268-0.205h1.714q0.116 0 0.201 0.085t0.085 0.201q0 0.045-0.009 0.063-0.571 2.393-2.393 3.879t-4.268 1.487q-1.304 0-2.522-0.491t-2.174-1.402l-1.152 1.152q-0.17 0.17-0.402 0.17t-0.402-0.17-0.17-0.402zM0.161 6.571v-0.063q0.58-2.393 2.411-3.879t4.286-1.487q1.304 0 2.536 0.496t2.188 1.397l1.161-1.152q0.17-0.17 0.402-0.17t0.402 0.17 0.17 0.402v4q0 0.232-0.17 0.402t-0.402 0.17h-4q-0.232 0-0.402-0.17t-0.17-0.402 0.17-0.402l1.232-1.232q-1.321-1.223-3.116-1.223-1.196 0-2.232 0.58t-1.661 1.598q-0.098 0.152-0.473 1.045-0.071 0.205-0.268 0.205h-1.777q-0.116 0-0.201-0.085t-0.085-0.201z" fill="#fcfcfc"></path>
</svg>
