<?xml version="1.0" encoding="utf-8"?>
<!-- Generated by IcoMoon.io -->
<!DOCTYPE svg PUBLIC "-//W3C//DTD SVG 1.1//EN" "http://www.w3.org/Graphics/SVG/1.1/DTD/svg11.dtd">
<svg version="1.1" xmlns="http://www.w3.org/2000/svg" xmlns:xlink="http://www.w3.org/1999/xlink" width="17" height="16" viewBox="0 0 17 16">
<g id="icomoon-ignore">
	<line stroke-width="1" x1="" y1="" x2="" y2="" stroke="#449FDB" opacity=""></line>
</g>
	<path d="M0 10.714v-2.375h2.929v2.339q0 0.384 0.268 0.647t0.643 0.263 0.643-0.263 0.268-0.647v-5.536q0-1.527 1.129-2.607t2.692-1.080q1.571 0 2.696 1.089t1.125 2.625v1.214l-1.741 0.518-1.17-0.545v-1.054q0-0.375-0.268-0.643t-0.643-0.268-0.643 0.268-0.268 0.643v5.464q0 1.563-1.125 2.67t-2.705 1.107q-1.589 0-2.71-1.121t-1.121-2.71zM9.482 10.75v-2.393l1.17 0.545 1.741-0.518v2.411q0 0.375 0.268 0.638t0.643 0.263 0.643-0.263 0.268-0.638v-2.455h2.929v2.375q0 1.589-1.121 2.71t-2.71 1.121q-1.58 0-2.705-1.112t-1.125-2.683z" fill="#fcfcfc"></path>
</svg>
