<?xml version="1.0" encoding="utf-8"?>
<!-- Generated by IcoMoon.io -->
<!DOCTYPE svg PUBLIC "-//W3C//DTD SVG 1.1//EN" "http://www.w3.org/Graphics/SVG/1.1/DTD/svg11.dtd">
<svg version="1.1" xmlns="http://www.w3.org/2000/svg" xmlns:xlink="http://www.w3.org/1999/xlink" width="17" height="16" viewBox="0 0 17 16">
<g id="icomoon-ignore">
	<line stroke-width="1" x1="" y1="" x2="" y2="" stroke="#449FDB" opacity=""></line>
</g>
	<path d="M0 6v-3.714q0-0.464 0.339-0.804t0.804-0.339h3.714q0.473 0 1.045 0.237t0.911 0.576l6.384 6.375q0.33 0.348 0.33 0.813 0 0.473-0.33 0.804l-4.384 4.393q-0.348 0.33-0.813 0.33-0.473 0-0.804-0.33l-6.384-6.393q-0.339-0.33-0.576-0.902t-0.237-1.045zM1.714 4q0 0.473 0.335 0.808t0.808 0.335 0.808-0.335 0.335-0.808-0.335-0.808-0.808-0.335-0.808 0.335-0.335 0.808zM6.286 1.143h2q0.473 0 1.045 0.237t0.911 0.576l6.384 6.375q0.33 0.348 0.33 0.813 0 0.473-0.33 0.804l-4.384 4.393q-0.348 0.33-0.813 0.33-0.321 0-0.527-0.125t-0.473-0.402l4.196-4.196q0.33-0.33 0.33-0.804 0-0.464-0.33-0.813l-6.384-6.375q-0.339-0.339-0.911-0.576t-1.045-0.237z" fill="#fcfcfc"></path>
</svg>
