<?xml version="1.0" encoding="utf-8"?>
<!-- Generated by IcoMoon.io -->
<!DOCTYPE svg PUBLIC "-//W3C//DTD SVG 1.1//EN" "http://www.w3.org/Graphics/SVG/1.1/DTD/svg11.dtd">
<svg version="1.1" xmlns="http://www.w3.org/2000/svg" xmlns:xlink="http://www.w3.org/1999/xlink" width="13" height="16" viewBox="0 0 13 16">
<g id="icomoon-ignore">
	<line stroke-width="1" x1="" y1="" x2="" y2="" stroke="#449FDB" opacity=""></line>
</g>
	<path d="M0.982 11.804q0-0.357 0.25-0.607l2.625-2.625-2.625-2.625q-0.25-0.25-0.25-0.607t0.25-0.607l1.214-1.214q0.25-0.25 0.607-0.25t0.607 0.25l2.625 2.625 2.625-2.625q0.25-0.25 0.607-0.25t0.607 0.25l1.214 1.214q0.25 0.25 0.25 0.607t-0.25 0.607l-2.625 2.625 2.625 2.625q0.25 0.25 0.25 0.607t-0.25 0.607l-1.214 1.214q-0.25 0.25-0.607 0.25t-0.607-0.25l-2.625-2.625-2.625 2.625q-0.25 0.25-0.607 0.25t-0.607-0.25l-1.214-1.214q-0.25-0.25-0.25-0.607z" fill="#fcfcfc"></path>
</svg>
