<?xml version="1.0" encoding="utf-8"?>
<!-- Generated by IcoMoon.io -->
<!DOCTYPE svg PUBLIC "-//W3C//DTD SVG 1.1//EN" "http://www.w3.org/Graphics/SVG/1.1/DTD/svg11.dtd">
<svg version="1.1" xmlns="http://www.w3.org/2000/svg" xmlns:xlink="http://www.w3.org/1999/xlink" width="9" height="16" viewBox="0 0 9 16">
<g id="icomoon-ignore">
	<line stroke-width="1" x1="" y1="" x2="" y2="" stroke="#449FDB" opacity=""></line>
</g>
	<path d="M0.696 6.759v-1.938q0.813-0.268 1.384-0.75 0.571-0.491 0.92-1.179 0.348-0.696 0.482-1.75h1.955v3.464h3.25v2.152h-3.25v3.518q0 1.214 0.125 1.536 0.116 0.33 0.464 0.536 0.446 0.277 1.045 0.277 1.045 0 2.071-0.679v2.161q-0.911 0.429-1.589 0.58-0.688 0.17-1.545 0.17-0.938 0-1.661-0.241-0.696-0.223-1.232-0.67-0.518-0.455-0.705-0.938-0.196-0.482-0.196-1.438v-4.813h-1.518z" fill="#fcfcfc"></path>
</svg>
