<?xml version="1.0" encoding="utf-8"?>
<!-- Generated by IcoMoon.io -->
<!DOCTYPE svg PUBLIC "-//W3C//DTD SVG 1.1//EN" "http://www.w3.org/Graphics/SVG/1.1/DTD/svg11.dtd">
<svg version="1.1" xmlns="http://www.w3.org/2000/svg" xmlns:xlink="http://www.w3.org/1999/xlink" width="16" height="16" viewBox="0 0 16 16">
<g id="icomoon-ignore">
	<line stroke-width="1" x1="" y1="" x2="" y2="" stroke="#449FDB" opacity=""></line>
</g>
	<path d="M0 12.286v-8.571q0-1.063 0.754-1.817t1.817-0.754h8.571q1.063 0 1.817 0.754t0.754 1.817v8.571q0 1.063-0.754 1.817t-1.817 0.754h-8.571q-1.063 0-1.817-0.754t-0.754-1.817zM1.143 6.518q0.143 0.071 0.228 0.232t0.192 0.179q0.188 0.027 0.487-0.076t0.518-0.094 0.371 0.268q0.098 0.161 0.165 0.344t0.134 0.429 0.112 0.362q0.152 0.411 0.473 1.67 0.321 1.304 0.509 1.759 0.375 0.884 0.92 1.116 0.384 0.107 0.759 0.013t0.679-0.281q1.17-0.688 2.232-2.116 0.929-1.241 1.54-2.612t0.737-2.022q0.143-0.759-0.188-1.179-0.464-0.58-1.67-0.402-0.152 0.027-0.366 0.112t-0.513 0.272-0.576 0.433-0.531 0.625-0.397 0.817q0.714-0.063 1.013 0.143t0.237 0.884q-0.045 0.464-0.464 1.277-0.384 0.696-0.634 0.884-0.393 0.286-0.777-0.125-0.205-0.214-0.335-0.576t-0.17-0.652-0.089-0.75-0.076-0.638q-0.205-1.152-0.304-1.464-0.107-0.33-0.317-0.616t-0.451-0.357q-0.509-0.143-1.134 0.223-0.482 0.286-1.219 0.946t-1.094 0.911v0.063z" fill="#fcfcfc"></path>
</svg>
