<?xml version="1.0" encoding="utf-8"?>
<!-- Generated by IcoMoon.io -->
<!DOCTYPE svg PUBLIC "-//W3C//DTD SVG 1.1//EN" "http://www.w3.org/Graphics/SVG/1.1/DTD/svg11.dtd">
<svg version="1.1" xmlns="http://www.w3.org/2000/svg" xmlns:xlink="http://www.w3.org/1999/xlink" width="16" height="16" viewBox="0 0 16 16">
<g id="icomoon-ignore">
	<line stroke-width="1" x1="" y1="" x2="" y2="" stroke="#449FDB" opacity=""></line>
</g>
	<path d="M0.143 13.17l6.857-12.571q0.152-0.277 0.42-0.438t0.58-0.161 0.58 0.161 0.42 0.438l6.857 12.571q0.313 0.563-0.018 1.125-0.152 0.259-0.415 0.411t-0.567 0.152h-13.714q-0.304 0-0.567-0.152t-0.415-0.411q-0.33-0.563-0.018-1.125zM6.714 4.857l0.152 4.080q0 0.089 0.089 0.147t0.214 0.058h1.652q0.125 0 0.21-0.058t0.094-0.147l0.161-4.098q0-0.107-0.089-0.17-0.116-0.098-0.214-0.098h-1.964q-0.098 0-0.214 0.098-0.089 0.063-0.089 0.188zM6.857 12.277q0 0.125 0.085 0.21t0.201 0.085h1.714q0.116 0 0.201-0.085t0.085-0.21v-1.696q0-0.125-0.085-0.21t-0.201-0.085h-1.714q-0.116 0-0.201 0.085t-0.085 0.21v1.696z" fill="#fcfcfc"></path>
</svg>
